<?xml version="1.0" standalone="no"?>
<!DOCTYPE svg PUBLIC "-//W3C//DTD SVG 20010904//EN"
 "http://www.w3.org/TR/2001/REC-SVG-20010904/DTD/svg10.dtd">
<svg version="1.0" xmlns="http://www.w3.org/2000/svg"
 width="512.000000pt" height="512.000000pt" viewBox="0 0 512.000000 512.000000"
 preserveAspectRatio="xMidYMid meet">

<g transform="translate(0.000000,512.000000) scale(0.100000,-0.100000)"
fill="#ffffff" stroke="10">
<path d="M2325 5113 c-185 -13 -436 -63 -620 -124 -780 -258 -1468 -1075
-1653 -1959 -44 -211 -47 -255 -47 -775 0 -499 0 -500 23 -557 33 -82 100
-168 164 -211 64 -42 3386 -1425 3506 -1459 104 -30 302 -32 412 -4 162 40
311 127 426 249 85 88 142 181 193 312 21 52 40 98 43 101 3 3 42 -13 87 -35
44 -23 93 -41 108 -41 46 0 107 37 131 79 l22 39 0 1080 0 1081 -25 134 c-57
310 -183 627 -352 887 -204 313 -500 604 -818 804 -114 72 -361 194 -486 240
-350 129 -744 185 -1114 159z m525 -318 c501 -75 968 -307 1325 -660 285 -282
488 -627 590 -1007 l24 -88 -25 0 c-14 0 -440 52 -947 116 -704 88 -938 114
-991 110 -184 -14 -356 -168 -395 -354 -7 -34 -11 -192 -11 -435 0 -415 4
-451 56 -547 14 -26 49 -71 77 -100 48 -49 116 -84 1000 -526 521 -261 947
-475 947 -477 0 -14 -85 -218 -106 -255 -46 -80 -143 -166 -236 -211 -127 -61
-242 -75 -366 -46 -82 19 -3386 1390 -3431 1423 -64 47 -63 44 -58 566 4 495
7 527 57 739 72 304 265 693 469 947 337 419 756 689 1206 778 87 17 171 30
315 46 72 9 399 -4 500 -19z m156 -1842 c12 -4 14 -93 14 -524 0 -285 -3 -519
-7 -519 -27 2 -250 130 -267 153 -20 28 -21 41 -21 420 0 389 0 392 22 423 37
52 76 66 167 59 43 -4 85 -9 92 -12z m1074 -133 c395 -49 724 -90 730 -90 7 0
10 -267 10 -860 0 -473 -2 -860 -5 -860 -3 0 -340 168 -750 372 l-745 373 0
577 c0 576 0 578 20 578 12 0 345 -40 740 -90z"/>
<path d="M1052 2990 c-109 -29 -187 -74 -273 -160 -238 -236 -238 -602 0 -841
239 -238 603 -238 842 0 187 188 230 451 113 691 -46 93 -159 210 -251 258
-132 69 -291 88 -431 52z m270 -308 c59 -26 124 -91 151 -151 16 -34 22 -66
22 -121 0 -91 -24 -149 -85 -210 -61 -61 -119 -85 -210 -85 -336 0 -413 464
-95 578 62 22 153 18 217 -11z"/>
</g>
</svg>
